<?xml version="1.0" encoding="utf-8"?>
<!-- Generator: Adobe Illustrator 17.1.0, SVG Export Plug-In . SVG Version: 6.00 Build 0)  -->
<!DOCTYPE svg PUBLIC "-//W3C//DTD SVG 1.1//EN" "http://www.w3.org/Graphics/SVG/1.1/DTD/svg11.dtd">
<svg version="1.1" xmlns="http://www.w3.org/2000/svg" xmlns:xlink="http://www.w3.org/1999/xlink" x="0px" y="0px"
	 viewBox="0 0 100 100" enable-background="new 0 0 100 100" xml:space="preserve">
<g id="Layer_1" display="none">
</g>
<g id="Layer_2">
	<path fill="#3A5A99" d="M12.576,0h74.706c6.917,0,12.576,5.331,12.576,11.846V88.14c0,6.516-5.659,11.846-12.576,11.846H12.576
		C5.659,99.986,0,94.656,0,88.14V11.846C0,5.331,5.659,0,12.576,0L12.576,0z"/>
	<path fill="#1A4072" d="M99.858,82.453v5.687c0,6.516-5.659,11.847-12.577,11.847H12.576C5.659,99.986,0,94.655,0,88.14v-5.687
		C0,88.969,5.659,94.3,12.576,94.3h74.705C94.199,94.3,99.858,88.969,99.858,82.453L99.858,82.453z"/>
	<path fill="#1A4072" d="M44.885,57.639l13.258-14.681l31.448-29.083l10.268,9.672v58.906v5.687c0,5.678-4.298,10.455-9.98,11.59
		l-5.773-5.147L66.448,94.3V77.951L44.885,57.639L44.885,57.639z"/>
	<path fill="#FFFFFF" d="M87.089,57.356l1.97-14.398H73.924v-9.192c0-4.169,1.234-7.01,7.58-7.01l8.087-0.004V13.875
		c-1.397-0.176-6.196-0.567-11.791-0.567c-11.671,0-19.656,6.711-19.656,19.034v10.617h-13.2v14.398h13.2V94.3h15.781V57.356H87.089
		L87.089,57.356z"/>
</g>
</svg>
