<?xml version="1.0" encoding="utf-8"?>
<!-- Generator: Adobe Illustrator 17.1.0, SVG Export Plug-In . SVG Version: 6.00 Build 0)  -->
<!DOCTYPE svg PUBLIC "-//W3C//DTD SVG 1.1//EN" "http://www.w3.org/Graphics/SVG/1.1/DTD/svg11.dtd">
<svg version="1.1" id="Layer_1" xmlns="http://www.w3.org/2000/svg" xmlns:xlink="http://www.w3.org/1999/xlink" x="0px" y="0px"
	 viewBox="0 0 100 100" enable-background="new 0 0 100 100" xml:space="preserve">
<path fill="#336699" d="M12.61,0h74.909c6.936,0,12.611,5.332,12.611,11.848v76.304c0,6.517-5.675,11.848-12.611,11.848H12.61
	C5.675,100,0,94.669,0,88.152V11.848C0,5.332,5.675,0,12.61,0L12.61,0z"/>
<path fill="#1E4B73" d="M100.13,82.464v5.687c0,6.516-5.675,11.848-12.611,11.848H12.611C5.675,100,0,94.668,0,88.152v-5.687
	c0,6.517,5.675,11.849,12.611,11.849h74.908C94.455,94.313,100.13,88.981,100.13,82.464L100.13,82.464z"/>
<path fill="#1E4B73" d="M25.442,17.205c-4.052,0-7.374,3.116-7.374,6.925v46.275c0,0.629,0.091,1.239,0.261,1.819v0.002l1.124,3.841
	L44.957,100h42.562c6.936,0,12.611-5.331,12.611-11.848V36.827L79.901,17.821l-3.385-0.401c-0.583-0.141-1.193-0.216-1.822-0.216
	H25.442L25.442,17.205z"/>
<path fill="#FFFFFF" d="M25.442,16.138h49.252c4.68,0,8.505,3.595,8.505,7.991v46.275c0,4.395-3.825,7.987-8.505,7.987H25.442
	c-4.68,0-8.509-3.592-8.509-7.987V24.13C16.933,19.734,20.762,16.138,25.442,16.138L25.442,16.138z M65.207,23.052
	c-1.644,0-2.984,1.264-2.984,2.807v6.706c0,1.543,1.34,2.805,2.984,2.805h7.489c1.64,0,2.983-1.262,2.983-2.805V25.86
	c0-1.543-1.343-2.807-2.983-2.807H65.207L65.207,23.052z M75.707,42.465h-5.83c0.553,1.696,0.852,3.485,0.852,5.346
	c0,10.352-9.224,18.748-20.6,18.748c-11.374,0-20.599-8.397-20.599-18.748c0-1.861,0.302-3.65,0.853-5.346H24.3v26.3
	c0,1.362,1.183,2.471,2.632,2.471h46.144c1.45,0,2.632-1.109,2.632-2.471V42.465L75.707,42.465z M50.128,35.017
	c-7.347,0-13.307,5.423-13.307,12.117c0,6.688,5.96,12.115,13.307,12.115c7.351,0,13.309-5.427,13.309-12.115
	C63.438,40.439,57.48,35.017,50.128,35.017L50.128,35.017z"/>
</svg>
