<?xml version="1.0" encoding="utf-8"?>
<!-- Generator: Adobe Illustrator 17.1.0, SVG Export Plug-In . SVG Version: 6.00 Build 0)  -->
<!DOCTYPE svg PUBLIC "-//W3C//DTD SVG 1.1//EN" "http://www.w3.org/Graphics/SVG/1.1/DTD/svg11.dtd">
<svg version="1.1" id="Layer_1" xmlns="http://www.w3.org/2000/svg" xmlns:xlink="http://www.w3.org/1999/xlink" x="0px" y="0px"
	 viewBox="0 0 100 100" enable-background="new 0 0 100 100" xml:space="preserve">
<path fill="#FAA21D" d="M12.611,0h74.913c6.936,0,12.611,5.324,12.611,11.832v76.201c0,6.508-5.675,11.832-12.611,11.832H12.611
	C5.675,99.865,0,94.541,0,88.033V11.832C0,5.324,5.675,0,12.611,0L12.611,0z"/>
<path fill="#C87829" d="M100.135,82.353v5.679c0,6.508-5.675,11.832-12.611,11.832H12.612C5.675,99.865,0,94.541,0,88.033v-5.679
	c0,6.508,5.675,11.832,12.612,11.832h74.913C94.461,94.186,100.135,88.861,100.135,82.353L100.135,82.353z"/>
<path fill="#C87829" d="M49.975,34.568L49.7,40.169L46.748,37.4l-0.107,2.314l-2.974-2.79l-0.113,2.453l-3.013-2.827l-0.139,3.334
	l-2.968-2.785l-0.149,3.974l-2.933-2.752l-0.187,5.371l-2.807-2.634l-0.288,1.546l-0.14,5.397l-2.628-2.466l-0.092,2.21l-2.846-2.67
	l-0.108,2.934l-2.895-2.716l-0.117,3.878l-2.846-2.67l-0.14,4.849l-2.58-2.42l-0.394,8.129l3.6,3.377l34.069,31.965l-0.175,7.463
	h33.744c6.937,0,12.611-5.324,12.611-11.832V58.772l-13.31-12.487l-1.723,0.782l-12.844-12.05l-9.882,22.359l-2.983,1.353
	l-0.971-20.849l-5.308-4.98l-0.213,4.415L49.975,34.568L49.975,34.568z"/>
<path fill="#FFFFFF" d="M19.218,59.481c0.152,0,0.28-0.118,0.303-0.283l0.829-6.167l-0.827-6.307
	c-0.025-0.165-0.154-0.284-0.306-0.284c-0.156,0-0.29,0.121-0.311,0.284l-0.724,6.307l0.724,6.164
	C18.928,59.361,19.062,59.481,19.218,59.481L19.218,59.481z"/>
<path fill="#FFFFFF" d="M16.483,57.135c0.15,0,0.272-0.11,0.294-0.273l0.642-3.832l-0.642-3.904
	c-0.023-0.159-0.144-0.273-0.294-0.273c-0.156,0-0.277,0.114-0.3,0.276l-0.537,3.901l0.537,3.831
	C16.206,57.023,16.328,57.135,16.483,57.135L16.483,57.135z"/>
<path fill="#FFFFFF" d="M22.488,45.55c-0.02-0.2-0.176-0.347-0.37-0.347c-0.194,0-0.35,0.146-0.368,0.347l-0.691,7.481l0.691,7.208
	c0.018,0.199,0.175,0.343,0.368,0.343c0.194,0,0.35-0.144,0.37-0.343l0.784-7.208L22.488,45.55L22.488,45.55z"/>
<path fill="#FFFFFF" d="M25.049,60.873c0.227,0,0.411-0.175,0.433-0.405l0.741-7.434l-0.741-7.69
	c-0.021-0.23-0.205-0.405-0.433-0.405c-0.231,0-0.417,0.174-0.433,0.406l-0.655,7.689l0.655,7.434
	C24.632,60.697,24.818,60.873,25.049,60.873L25.049,60.873z"/>
<path fill="#FFFFFF" d="M28,60.993c0.264,0,0.476-0.199,0.499-0.465l-0.003,0.002l0.697-7.497l-0.697-7.135
	c-0.02-0.262-0.232-0.464-0.496-0.464c-0.269,0-0.481,0.202-0.495,0.466l-0.617,7.133l0.617,7.494
	C27.519,60.794,27.731,60.993,28,60.993L28,60.993z"/>
<path fill="#FFFFFF" d="M32.19,53.034l-0.655-11.6c-0.018-0.294-0.262-0.528-0.561-0.528c-0.297,0-0.542,0.234-0.56,0.528
	l-0.578,11.6l0.578,7.496c0.019,0.295,0.263,0.526,0.56,0.526c0.3,0,0.544-0.231,0.561-0.526v0.002L32.19,53.034L32.19,53.034z"/>
<path fill="#FFFFFF" d="M33.978,61.069c0.328,0,0.603-0.257,0.618-0.585v0.005l0.612-7.452l-0.612-14.255
	c-0.015-0.328-0.29-0.585-0.618-0.585c-0.339,0-0.61,0.257-0.627,0.585l-0.538,14.255l0.541,7.45
	C33.368,60.812,33.639,61.069,33.978,61.069L33.978,61.069z"/>
<path fill="#FFFFFF" d="M36.998,36.948c-0.371,0-0.672,0.286-0.688,0.646l-0.5,15.445l0.5,7.372
	c0.016,0.358,0.316,0.643,0.688,0.643c0.37,0,0.673-0.282,0.686-0.645v0.004l0.569-7.373l-0.569-15.445
	C37.671,37.231,37.368,36.948,36.998,36.948L36.998,36.948z"/>
<path fill="#FFFFFF" d="M40.046,61.069c0.408,0,0.732-0.309,0.748-0.707v0.004l0.525-7.327l-0.525-15.964
	c-0.016-0.395-0.34-0.706-0.748-0.706c-0.411,0-0.742,0.311-0.748,0.706l-0.472,15.964l0.472,7.327
	C39.304,60.76,39.635,61.069,40.046,61.069L40.046,61.069z"/>
<path fill="#FFFFFF" d="M43.118,61.061c0.44,0,0.798-0.338,0.811-0.767v0.007l0.484-7.261l-0.484-15.558
	c-0.013-0.428-0.371-0.766-0.811-0.766c-0.444,0-0.8,0.337-0.813,0.766L41.88,53.041l0.427,7.257
	C42.318,60.723,42.674,61.061,43.118,61.061L43.118,61.061z"/>
<path fill="#FFFFFF" d="M47.525,53.041l-0.438-14.99c-0.011-0.462-0.397-0.826-0.876-0.826c-0.479,0-0.865,0.363-0.876,0.828
	l-0.392,14.988l0.392,7.213c0.011,0.459,0.397,0.822,0.876,0.822c0.479,0,0.865-0.363,0.876-0.828v0.006L47.525,53.041
	L47.525,53.041z"/>
<path fill="#FFFFFF" d="M49.329,61.089c0.51,0,0.93-0.397,0.939-0.885v0.004l0.396-7.163l-0.396-17.839
	c-0.008-0.49-0.429-0.886-0.939-0.886c-0.507,0-0.928,0.399-0.938,0.888l-0.354,17.829l0.354,7.17
	C48.401,60.692,48.821,61.089,49.329,61.089L49.329,61.089z"/>
<path fill="#FFFFFF" d="M52.437,32.643c-0.549,0-0.995,0.427-1.004,0.948l-0.411,19.457l0.414,7.057
	c0.007,0.515,0.453,0.941,1.001,0.941c0.541,0,0.995-0.426,0.997-0.949v0.009l0.449-7.057L53.434,33.59
	C53.432,33.067,52.977,32.643,52.437,32.643L52.437,32.643z"/>
<path fill="#FFFFFF" d="M55.278,61.096c0.021,0.002,25.043,0.013,25.204,0.013c5.023,0,9.094-3.867,9.094-8.637
	c0-4.769-4.071-8.635-9.094-8.635c-1.247,0-2.435,0.239-3.518,0.672c-0.721-7.785-7.594-13.89-15.98-13.89
	c-2.049,0-4.048,0.384-5.814,1.033c-0.686,0.252-0.871,0.513-0.876,1.015v27.407C54.302,60.603,54.733,61.043,55.278,61.096
	L55.278,61.096z"/>
</svg>
