<?xml version="1.0" encoding="utf-8"?>
<!-- Generator: Adobe Illustrator 17.1.0, SVG Export Plug-In . SVG Version: 6.00 Build 0)  -->
<!DOCTYPE svg PUBLIC "-//W3C//DTD SVG 1.1//EN" "http://www.w3.org/Graphics/SVG/1.1/DTD/svg11.dtd">
<svg version="1.1" id="Layer_1" xmlns="http://www.w3.org/2000/svg" xmlns:xlink="http://www.w3.org/1999/xlink" x="0px" y="0px"
	 viewBox="0 0 100 100" enable-background="new 0 0 100 100" xml:space="preserve">
<path fill="#CE342D" d="M12.686,0.239h74.543c6.902,0,12.549,5.318,12.549,11.817v76.106c0,6.5-5.647,11.817-12.549,11.817H12.686
	c-6.902,0-12.549-5.318-12.549-11.817V12.056C0.137,5.557,5.784,0.239,12.686,0.239L12.686,0.239z"/>
<path fill="#A42624" d="M99.777,82.489v5.673c0,6.5-5.647,11.817-12.549,11.817H12.686c-6.902,0-12.549-5.318-12.549-11.817v-5.673
	c0,6.5,5.647,11.818,12.549,11.818h74.542C94.13,94.307,99.777,88.989,99.777,82.489L99.777,82.489z"/>
<path fill="#A42624" d="M38.672,42.878c-4.502,0.097-8.998,0.31-13.473,0.781c-1.157,0.122-2.221,0.523-3.124,1.129h0v0
	c-1.374,0.923-2.376,2.321-2.77,3.937c-0.91,3.727-1.09,7.679-1.126,11.55v0.003c-0.009,0.991-0.009,1.978-0.009,2.954
	c0,4.783-0.021,9.827,1.121,14.505l0.938,4.343l19.006,17.898h47.994c6.902,0,12.549-5.317,12.549-11.817V44.417L70.078,16.45
	l-1.13,1.064h-1.808v3.364l-4.702-4.428l-1.13,1.064h-1.795v6.153l-6.128-5.771l-0.53,0.623l-9.87-9.294l-1.522,1.064h-2.164
	l-1.243,4.498l-5.907-5.563l-0.865,1.064h-2.302c0.79,2.165,1.592,4.325,2.38,6.49c1.056,2.904,2.194,6.101,2.797,9.121l0.02,0.097
	v10.522l-1.13,1.064L38.672,42.878L38.672,42.878z"/>
<path fill="#FFFFFF" d="M42.985,9.225h-4.559L35.35,20.36l-3.2-11.136h-4.748c0.95,2.625,1.941,5.27,2.892,7.899
	c1.445,3.956,2.349,6.936,2.757,8.973v11.487h4.511V26.096L42.985,9.225L42.985,9.225z M55.039,30.74v-7.404
	c0-2.257-0.412-3.907-1.264-4.978c-1.127-1.442-2.707-2.166-4.744-2.166c-2.025,0-3.611,0.723-4.735,2.166
	c-0.866,1.071-1.274,2.721-1.274,4.978v7.404c0,2.247,0.408,3.911,1.274,4.972c1.124,1.44,2.71,2.163,4.735,2.163
	c2.037,0,3.617-0.723,4.744-2.163C54.628,34.651,55.039,32.988,55.039,30.74L55.039,30.74z M50.97,31.463
	c0,1.954-0.628,2.932-1.939,2.932c-1.313,0-1.942-0.978-1.942-2.932V22.57c0-1.956,0.63-2.929,1.942-2.929
	c1.311,0,1.939,0.973,1.939,2.929V31.463L50.97,31.463z M70.078,37.583V16.45h-4.068v16.153c-0.903,1.198-1.757,1.792-2.57,1.792
	c-0.547,0-0.864-0.303-0.953-0.897c-0.05-0.124-0.05-0.592-0.05-1.492V16.45h-4.055V33.16c0,1.491,0.137,2.503,0.362,3.143
	c0.405,1.071,1.308,1.573,2.619,1.573c1.483,0,3.026-0.849,4.646-2.599v2.306H70.078L70.078,37.583z"/>
<path fill="#FFFFFF" d="M83.252,63.233c0,4.888-0.004,10.075-1.168,14.823c-0.813,3.333-3.709,5.791-7.196,6.16
	c-8.257,0.868-16.616,0.874-24.934,0.868c-8.321,0.005-16.677,0-24.935-0.868c-3.488-0.369-6.384-2.828-7.196-6.16
	c-1.159-4.748-1.159-9.935-1.159-14.823c0-4.894,0.012-10.071,1.173-14.825c0.812-3.332,3.708-5.793,7.195-6.158
	c8.257-0.87,16.615-0.872,24.935-0.87c8.318-0.001,16.677,0,24.934,0.87c3.488,0.365,6.384,2.827,7.197,6.158
	C83.257,53.162,83.252,58.339,83.252,63.233L83.252,63.233z"/>
<path fill="#A42624" d="M35.657,52.684V48.73H21.624v3.954h4.734v24.115h4.475V52.684H35.657L35.657,52.684z M43.786,76.799v-2.281
	c-1.596,1.728-3.116,2.57-4.597,2.57c-1.297,0-2.192-0.495-2.591-1.556c-0.222-0.636-0.356-1.631-0.356-3.109V55.884h4.022v15.399
	c0,0.886,0,1.351,0.037,1.474c0.098,0.587,0.403,0.885,0.941,0.885c0.807,0,1.655-0.587,2.544-1.772V55.884h4.03v20.915H43.786
	L43.786,76.799z M59.079,70.822c0,1.889-0.591,2.819-1.751,2.819c-0.661,0-1.334-0.298-2.006-0.93V59.963
	c0.672-0.623,1.345-0.922,2.006-0.922c1.16,0,1.751,0.969,1.751,2.855V70.822L59.079,70.822z M63.101,70.524v-8.33
	c0-1.978-0.137-3.364-0.405-4.205c-0.537-1.566-1.613-2.36-3.217-2.36c-1.478,0-2.856,0.763-4.158,2.267V48.73h-4.023v28.069h4.023
	v-2.027c1.345,1.566,2.726,2.316,4.158,2.316c1.604,0,2.68-0.795,3.217-2.351C62.963,73.852,63.101,72.458,63.101,70.524
	L63.101,70.524z M74.265,63.877h-4.021v-1.933c0-1.934,0.673-2.904,2.019-2.904c1.329,0,2.003,0.969,2.003,2.904V63.877
	L74.265,63.877z M78.291,70.108v-0.552h-4.109c0,1.521-0.048,2.357-0.085,2.565c-0.232,1.012-0.811,1.52-1.8,1.52
	c-1.38,0-2.053-0.965-2.053-2.902v-3.705h8.048v-4.332c0-2.237-0.406-3.872-1.249-4.928c-1.126-1.434-2.728-2.145-4.746-2.145
	c-2.053,0-3.659,0.711-4.819,2.145c-0.857,1.056-1.243,2.691-1.243,4.928v7.326c0,2.217,0.437,3.871,1.291,4.914
	c1.161,1.43,2.763,2.145,4.873,2.145c2.1,0,3.75-0.75,4.866-2.267c0.486-0.671,0.802-1.434,0.938-2.271
	C78.24,72.169,78.291,71.326,78.291,70.108L78.291,70.108z"/>
</svg>
